<svg width="54" height="54" viewBox="0 0 54 54" fill="none" xmlns="http://www.w3.org/2000/svg">
<rect width="53.5537" height="53.5537" rx="26.7769" fill="white" fill-opacity="0.1"/>
<g clip-path="url(#clip0_4_1797)">
<path d="M36.1275 16.8596H17.4262C15.9811 16.8596 14.876 17.9647 14.876 19.4098V34.7109C14.876 36.1559 15.9811 37.261 17.4262 37.261H36.1275C37.5725 37.261 38.6776 36.1559 38.6776 34.7109V19.4098C38.6776 17.9647 37.5725 16.8596 36.1275 16.8596ZM20.9114 19.9198C20.9964 19.8348 20.9964 19.7498 21.0814 19.6648C21.1664 19.5798 21.2514 19.4948 21.3364 19.4948C21.6764 19.3248 22.0165 19.4098 22.2715 19.6648C22.3565 19.7498 22.4415 19.8348 22.4415 19.9198C22.5265 20.0048 22.5265 20.1749 22.5265 20.2599C22.5265 20.5149 22.4415 20.6849 22.2715 20.8549C22.1015 21.0249 21.9315 21.1099 21.6764 21.1099C21.4214 21.1099 21.2514 21.0249 21.0814 20.8549C20.9114 20.6849 20.8264 20.5149 20.8264 20.2599C20.8264 20.1749 20.8264 20.0048 20.9114 19.9198ZM18.2762 20.2599C18.2762 20.0048 18.3612 19.8348 18.5312 19.6648L18.6162 19.5798C18.7012 19.5798 18.7012 19.4948 18.7863 19.4948C18.8713 19.4098 18.8713 19.4098 18.9563 19.4098C19.0413 19.4098 19.2113 19.4098 19.2963 19.4098C19.3813 19.4098 19.3813 19.4098 19.4663 19.4948C19.5513 19.4948 19.5513 19.5798 19.6363 19.5798L19.7213 19.6648C19.8063 19.7498 19.8913 19.8348 19.8913 19.9198C19.9763 20.0048 19.9763 20.1749 19.9763 20.2599C19.9763 20.3449 19.9763 20.5149 19.8913 20.5999C19.8913 20.6849 19.8063 20.7699 19.7213 20.8549C19.5513 21.0249 19.3813 21.1099 19.1263 21.1099C18.8713 21.1099 18.7012 21.0249 18.5312 20.8549C18.3612 20.6849 18.2762 20.5149 18.2762 20.2599ZM23.1216 31.5657C23.4616 31.9056 23.4616 32.4157 23.1216 32.7558C22.9515 32.9257 22.7815 33.0107 22.5265 33.0107C22.2715 33.0107 22.1015 32.9257 21.9315 32.7558L19.3813 30.2055C19.0413 29.8655 19.0413 29.3555 19.3813 29.0154L21.9315 26.4653C22.2715 26.1253 22.7815 26.1253 23.1216 26.4653C23.4616 26.8053 23.4616 27.3154 23.1216 27.6554L21.1664 29.6105L23.1216 31.5657ZM23.8866 21.0249C23.8016 20.9399 23.7166 20.9399 23.6316 20.8549C23.5466 20.7699 23.4616 20.6849 23.4616 20.5999C23.3766 20.5149 23.3766 20.3449 23.3766 20.2599C23.3766 20.1749 23.3766 20.0048 23.4616 19.9198C23.5466 19.8348 23.5466 19.7498 23.6316 19.6648C23.9716 19.3248 24.4816 19.3248 24.8217 19.6648C24.9067 19.7498 24.9917 19.8348 24.9917 19.9198C25.0767 20.0048 25.0767 20.1749 25.0767 20.2599C25.0767 20.3449 25.0767 20.5149 24.9917 20.5999C24.9067 20.6849 24.9067 20.7699 24.8217 20.8549C24.6517 21.0249 24.4816 21.1099 24.2266 21.1099C24.1416 21.1099 23.9716 21.1099 23.8866 21.0249ZM29.242 26.5503L25.8417 33.3508C25.6717 33.6908 25.4167 33.8608 25.0767 33.8608C24.9067 33.8608 24.8217 33.8608 24.7367 33.7758C24.3116 33.6058 24.1416 33.0957 24.3966 32.6708L27.7969 25.8702C27.9669 25.4452 28.4769 25.2752 28.902 25.5303C29.242 25.7002 29.4119 26.2103 29.242 26.5503ZM34.1723 30.2055L31.6221 32.7558C31.4521 32.9257 31.2822 33.0107 31.0271 33.0107C30.7721 33.0107 30.602 32.9257 30.432 32.7558C30.0921 32.4157 30.0921 31.9056 30.432 31.5657L32.3871 29.6105L30.432 27.6554C30.0921 27.3154 30.0921 26.8053 30.432 26.4653C30.7721 26.1253 31.2822 26.1253 31.6221 26.4653L34.1723 29.0154C34.5123 29.3555 34.5123 29.8655 34.1723 30.2055Z" fill="#0D6EFD"/>
</g>
<defs>
<clipPath id="clip0_4_1797">
<rect width="23.8017" height="23.8017" fill="white" transform="translate(14.876 14.876)"/>
</clipPath>
</defs>
</svg>
