<svg width="71" height="70" viewBox="0 0 71 70" fill="none" xmlns="http://www.w3.org/2000/svg">
<rect x="0.227295" width="69.8485" height="69.8485" rx="13.9697" fill="white" fill-opacity="0.1"/>
<g clip-path="url(#clip0_4_1859)">
<mask id="mask0_4_1859" style="mask-type:luminance" maskUnits="userSpaceOnUse" x="15" y="15" width="41" height="41">
<path d="M55.1085 15.1272H15.1951V55.0406H55.1085V15.1272Z" fill="white"/>
</mask>
<g mask="url(#mask0_4_1859)">
<path fill-rule="evenodd" clip-rule="evenodd" d="M35.1683 15.1272C24.1236 15.1272 15.1951 24.274 15.1951 35.5897C15.1951 44.6352 20.9159 52.2918 28.8522 55.0017C29.8444 55.2055 30.2079 54.5615 30.2079 54.0197C30.2079 53.5453 30.1752 51.9194 30.1752 50.2251C24.6191 51.4451 23.4621 47.7858 23.4621 47.7858C22.5692 45.4143 21.2462 44.8049 21.2462 44.8049C19.4277 43.5512 21.3787 43.5512 21.3787 43.5512C23.3959 43.6867 24.4544 45.6516 24.4544 45.6516C26.2397 48.7683 29.1167 47.8876 30.2741 47.3456C30.4393 46.0242 30.9688 45.1094 31.5309 44.6015C27.0995 44.1271 22.4372 42.3654 22.4372 34.5056C22.4372 32.2695 23.2303 30.4402 24.4871 29.0174C24.2888 28.5094 23.5942 26.4085 24.6858 23.5967C24.6858 23.5967 26.3722 23.0545 30.1748 25.6971C31.8028 25.2492 33.4818 25.0214 35.1683 25.0194C36.8549 25.0194 38.5738 25.2569 40.1615 25.6971C43.9643 23.0545 45.6508 23.5967 45.6508 23.5967C46.7424 26.4085 46.0471 28.5094 45.8492 29.0174C47.1388 30.4402 47.8993 32.2695 47.8993 34.5056C47.8993 42.3654 43.2372 44.093 38.7727 44.6015C39.5003 45.2449 40.1282 46.4645 40.1282 48.3957C40.1282 51.1397 40.0957 53.3421 40.0957 54.0195C40.0957 54.5615 40.4593 55.2055 41.4511 55.0021C49.3877 52.2914 55.1083 44.6352 55.1083 35.5897C55.1412 24.274 46.1799 15.1272 35.1683 15.1272Z" fill="#FEFEFE"/>
</g>
</g>
<defs>
<clipPath id="clip0_4_1859">
<rect width="41.9091" height="41.9091" fill="white" transform="translate(14.197 13.9697)"/>
</clipPath>
</defs>
</svg>
