<svg width="70" height="70" viewBox="0 0 70 70" fill="none" xmlns="http://www.w3.org/2000/svg">
<rect x="0.0759277" width="69.8485" height="69.8485" rx="13.9697" fill="white" fill-opacity="0.1"/>
<g clip-path="url(#clip0_4_1866)">
<mask id="mask0_4_1866" style="mask-type:luminance" maskUnits="userSpaceOnUse" x="15" y="15" width="40" height="41">
<path d="M54.9571 15.1272H15.0437V55.0406H54.9571V15.1272Z" fill="white"/>
</mask>
<g mask="url(#mask0_4_1866)">
<path d="M54.9571 15.1272H15.0437V55.0406H54.9571V15.1272Z" fill="#880707" fill-opacity="0.01"/>
<path fill-rule="evenodd" clip-rule="evenodd" d="M24.1257 54.1219V28.4303H15.5873V54.1217L24.1257 54.1219ZM19.8574 24.9239C22.834 24.9239 24.6882 22.9494 24.6882 20.4841C24.6319 17.9639 22.834 16.0452 19.9132 16.0452C16.992 16.0452 15.0825 17.964 15.0825 20.4841C15.0825 22.9495 16.9357 24.9239 19.8012 24.9239L19.8574 24.9239ZM28.8514 54.1219C28.8514 54.1219 28.9634 30.8409 28.8514 28.4304H37.3911V32.1562H37.3344C38.4574 30.403 40.4804 27.8271 45.0864 27.8271C50.7058 27.8271 54.9178 31.4991 54.9178 39.3904V54.1219H46.3796V40.3777C46.3796 36.9242 45.144 34.5675 42.0532 34.5675C39.6947 34.5675 38.2891 36.1563 37.6719 37.6921C37.4461 38.2387 37.3911 39.0065 37.3911 39.7744V54.1219H28.8514Z" fill="#FEFEFE"/>
</g>
<path d="M53.959 16.1252H16.0413V54.043H53.959V16.1252Z" stroke="#880707" stroke-opacity="0.01" stroke-width="1.99567"/>
</g>
<defs>
<clipPath id="clip0_4_1866">
<rect width="41.9091" height="41.9091" fill="white" transform="translate(14.0457 13.9697)"/>
</clipPath>
</defs>
</svg>
