<svg width="71" height="70" viewBox="0 0 71 70" fill="none" xmlns="http://www.w3.org/2000/svg">
<rect x="0.378906" width="69.8485" height="69.8485" rx="13.9697" fill="white" fill-opacity="0.1"/>
<g clip-path="url(#clip0_4_1881)">
<mask id="mask0_4_1881" style="mask-type:luminance" maskUnits="userSpaceOnUse" x="15" y="15" width="41" height="41">
<path d="M55.2601 15.1272H15.3467V55.0406H55.2601V15.1272Z" fill="white"/>
</mask>
<g mask="url(#mask0_4_1881)">
<path d="M43.2704 31.946C41.017 31.946 40.2928 34.1187 40.132 35.4061V35.4867L39.8101 36.6937C40.7758 37.4986 41.9827 38.0618 43.1897 38.0618C44.7992 38.0618 46.2477 36.6937 46.3281 34.9234C46.3281 33.3141 44.9601 31.946 43.2704 31.946Z" fill="#FEFEFE"/>
<path d="M35.3034 15.1272C24.2789 15.1272 15.3467 24.0594 15.3467 35.084C15.3467 46.1082 24.2789 55.0407 35.3034 55.0407C46.3279 55.0407 55.2601 46.1082 55.2601 35.084C55.2601 24.0594 46.3279 15.1272 35.3034 15.1272ZM43.2699 41.1997C41.6606 41.1997 40.2926 40.7169 39.0856 39.9925L37.7176 46.4303H34.5791L36.5104 37.5785C35.7057 36.452 34.9011 35.1644 34.3378 33.9574V35.3254C34.3378 38.6245 31.6822 41.2801 28.4634 41.2801C25.2445 41.2801 22.589 38.6245 22.589 35.3254V27.2783H25.6469V35.3254C25.6469 36.9347 26.9344 38.2223 28.5439 38.2223C30.1533 38.2223 31.4408 36.9347 31.4408 35.3254V27.2783H34.4986C35.1424 29.29 36.1887 31.7041 37.5565 33.8769C38.3612 30.819 40.6145 28.9681 43.431 28.9681C46.7302 28.9681 49.4663 31.7041 49.4663 35.0033C49.3054 38.4638 46.5694 41.1997 43.2699 41.1997Z" fill="#FEFEFE"/>
</g>
</g>
<defs>
<clipPath id="clip0_4_1881">
<rect width="41.9091" height="41.9091" fill="white" transform="translate(14.3486 13.9697)"/>
</clipPath>
</defs>
</svg>
