<svg width="71" height="70" viewBox="0 0 71 70" fill="none" xmlns="http://www.w3.org/2000/svg">
<rect x="0.924316" width="69.8485" height="69.8485" rx="13.9697" fill="white" fill-opacity="0.1"/>
<path d="M28.4441 51.7155C43.5058 51.7155 51.7441 38.9176 51.7441 27.8199C51.7441 27.4565 51.7441 27.0945 51.7202 26.7342C53.3229 25.5453 54.7061 24.0735 55.8055 22.3871C54.311 23.0661 52.7254 23.5118 51.1019 23.7083C52.8116 22.6586 54.091 21.008 54.7021 19.0632C53.0944 20.0415 51.336 20.731 49.5022 21.1017C46.4009 17.7196 41.2136 17.5563 37.9157 20.737C35.7886 22.7882 34.8865 25.8446 35.5466 28.7614C28.963 28.4226 22.8282 25.2333 18.6701 19.9865C16.4966 23.8238 17.6066 28.7332 21.2055 31.1975C19.9021 31.1579 18.6275 30.7972 17.4886 30.1463C17.4886 30.1809 17.4886 30.2169 17.4886 30.2528C17.4895 34.2505 20.2374 37.6939 24.0585 38.4855C22.8531 38.8226 21.5878 38.8721 20.3607 38.6298C21.4335 42.051 24.5077 44.3945 28.0113 44.462C25.1113 46.7993 21.5293 48.068 17.8412 48.0642C17.1897 48.063 16.5391 48.0223 15.8921 47.9426C19.6369 50.4073 23.9946 51.7145 28.4441 51.7087" fill="#FEFEFE"/>
</svg>
