<svg width="71" height="70" viewBox="0 0 71 70" fill="none" xmlns="http://www.w3.org/2000/svg">
<rect x="0.772949" width="69.8485" height="69.8485" rx="13.9697" fill="white" fill-opacity="0.1"/>
<g clip-path="url(#clip0_4_1878)">
<path d="M42.0833 35.084C42.0833 36.347 41.7087 37.5817 41.0071 38.6319C40.3054 39.682 39.308 40.5006 38.1411 40.984C36.9742 41.4673 35.6901 41.5938 34.4513 41.3474C33.2125 41.1009 32.0746 40.4926 31.1815 39.5996C30.2884 38.7065 29.6802 37.5686 29.4338 36.3298C29.1873 35.0909 29.3138 33.807 29.7972 32.64C30.2805 31.4731 31.099 30.4757 32.1492 29.774C33.1994 29.0723 34.4341 28.6978 35.6972 28.6978C37.3903 28.6997 39.0136 29.3731 40.2108 30.5704C41.408 31.7676 42.0813 33.3908 42.0833 35.084ZM55.6539 26.303V43.8649C55.6505 46.8279 54.4721 49.6685 52.3768 51.7636C50.2818 53.8588 47.4411 55.0373 44.4781 55.0407H26.9162C23.9533 55.0373 21.1126 53.8588 19.0175 51.7636C16.9224 49.6685 15.7438 46.8279 15.7405 43.8649V26.303C15.7438 23.34 16.9224 20.4993 19.0175 18.4042C21.1126 16.3091 23.9533 15.1306 26.9162 15.1272H44.4781C47.4411 15.1306 50.2818 16.3091 52.3768 18.4042C54.4721 20.4993 55.6505 23.34 55.6539 26.303ZM45.2764 35.084C45.2764 33.1893 44.7146 31.3373 43.6621 29.762C42.6094 28.1867 41.1134 26.9589 39.363 26.2339C37.6126 25.5088 35.6866 25.3191 33.8284 25.6888C31.9702 26.0584 30.2633 26.9707 28.9237 28.3104C27.584 29.6501 26.6716 31.3569 26.302 33.2151C25.9324 35.0734 26.1221 36.9994 26.8471 38.7498C27.5722 40.5 28.8 41.9962 30.3753 43.0487C31.9506 44.1014 33.8026 44.6632 35.6972 44.6632C38.2369 44.6602 40.6718 43.6502 42.4675 41.8543C44.2634 40.0584 45.2736 37.6236 45.2764 35.084ZM48.4695 24.7064C48.4695 24.2328 48.329 23.7698 48.066 23.3759C47.8027 22.9821 47.4287 22.6752 46.9911 22.4939C46.5534 22.3127 46.0721 22.2652 45.6075 22.3576C45.1429 22.45 44.7162 22.6781 44.3813 23.013C44.0465 23.3479 43.8184 23.7747 43.726 24.2392C43.6336 24.7038 43.6809 25.1853 43.8621 25.6229C44.0435 26.0605 44.3504 26.4345 44.7442 26.6976C45.1381 26.9608 45.6011 27.1012 46.0747 27.1012C46.7099 27.1012 47.319 26.8489 47.768 26.3998C48.2172 25.9507 48.4695 25.3416 48.4695 24.7064Z" fill="#FEFEFE"/>
</g>
<defs>
<clipPath id="clip0_4_1878">
<rect width="41.9091" height="41.9091" fill="white" transform="translate(14.7424 13.9697)"/>
</clipPath>
</defs>
</svg>
