<svg width="136" height="40" viewBox="0 0 136 40" fill="none" xmlns="http://www.w3.org/2000/svg">
<path fill-rule="evenodd" clip-rule="evenodd" d="M40.4054 22.1489H38.2373C37.5047 29.2785 32.6409 35.1835 26.0794 37.4305V39.6978C33.8432 37.352 39.642 30.4789 40.4054 22.1489ZM26.0794 29.0828V26.086C27.1916 25.0283 28.0186 23.6736 28.4334 22.1489H30.8684C30.2603 25.053 28.4962 27.5322 26.0794 29.0828ZM26.0794 34.7723V32.3937C30.0452 30.4742 32.9301 26.6725 33.5737 22.1489H35.7676C35.0667 27.8922 31.2607 32.6765 26.0794 34.7723ZM14.4439 34.8194V32.4501C10.4174 30.5493 7.48157 26.7172 6.83159 22.1489H4.63768C5.34397 27.9357 9.20245 32.7489 14.4439 34.8194ZM14.4439 29.1576V26.1963C13.2721 25.1232 12.401 23.7271 11.9717 22.1489H9.53673C10.1546 25.1001 11.9665 27.6125 14.4439 29.1576ZM14.4439 39.733V37.4704C7.82287 35.2541 2.90511 29.3211 2.16813 22.1489H0C0.76727 30.521 6.62098 37.4214 14.4439 39.733Z" fill="url(#paint0_linear_2_1207)"/>
<path fill-rule="evenodd" clip-rule="evenodd" d="M7.32653 16.4345H5.07292C6.77486 9.61491 12.9416 4.56273 20.2883 4.56273C28.2939 4.56273 34.8984 10.5618 35.8515 18.3098H38.3119C37.3262 9.22734 29.6328 2.15784 20.2882 2.15784C10.9386 2.15784 3.24187 9.23501 2.26294 18.3246H9.50696C10.1892 13.6716 13.8121 9.97417 18.4278 9.18014V11.5934L18.4277 11.5935V37.461H22.2669V11.6206L22.2669 11.6206V9.20113C27.3406 10.1318 31.1855 14.5764 31.1855 19.9191C31.1855 20.0377 31.1836 20.1559 31.1798 20.2736H28.8103C28.8151 20.156 28.8175 20.0379 28.8175 19.9191C28.8175 16.6487 26.9769 13.8083 24.2751 12.3771V39.7645H22.2669V39.7645H18.4277V39.7646H16.4195V12.3158C13.6534 13.726 11.7591 16.6014 11.7591 19.9191C11.7591 20.0379 11.7615 20.156 11.7663 20.2736H9.92265V20.2737H1.4766V20.2736H0C0.00791866 9.07543 9.08823 0 20.2882 0C31.4882 0 40.5685 9.07543 40.5765 20.2736H40.5759C40.5763 20.2883 40.5764 20.3031 40.5764 20.3179H33.7841V19.7046C33.501 12.4953 27.567 6.73759 20.2883 6.73759C14.1517 6.73759 8.97105 10.83 7.32653 16.4345Z" fill="#D9D9D9"/>
<path fill-rule="evenodd" clip-rule="evenodd" d="M7.32653 16.4345H5.07292C6.77486 9.61491 12.9416 4.56273 20.2883 4.56273C28.2939 4.56273 34.8984 10.5618 35.8515 18.3098H38.3119C37.3262 9.22734 29.6328 2.15784 20.2882 2.15784C10.9386 2.15784 3.24187 9.23501 2.26294 18.3246H9.50696C10.1892 13.6716 13.8121 9.97417 18.4278 9.18014V11.5934L18.4277 11.5935V37.461H22.2669V11.6206L22.2669 11.6206V9.20113C27.3406 10.1318 31.1855 14.5764 31.1855 19.9191C31.1855 20.0377 31.1836 20.1559 31.1798 20.2736H28.8103C28.8151 20.156 28.8175 20.0379 28.8175 19.9191C28.8175 16.6487 26.9769 13.8083 24.2751 12.3771V39.7645H22.2669V39.7645H18.4277V39.7646H16.4195V12.3158C13.6534 13.726 11.7591 16.6014 11.7591 19.9191C11.7591 20.0379 11.7615 20.156 11.7663 20.2736H9.92265V20.2737H1.4766V20.2736H0C0.00791866 9.07543 9.08823 0 20.2882 0C31.4882 0 40.5685 9.07543 40.5765 20.2736H40.5759C40.5763 20.2883 40.5764 20.3031 40.5764 20.3179H33.7841V19.7046C33.501 12.4953 27.567 6.73759 20.2883 6.73759C14.1517 6.73759 8.97105 10.83 7.32653 16.4345Z" fill="url(#paint1_linear_2_1207)"/>
<path d="M51.1959 15.1794V9.35114H48.8881V7.66598H55.6181V9.35114H53.3211V15.1794H51.1959ZM58.3633 10.5748H61.8517V12.1633H58.3633V10.5748ZM58.5136 13.5372H62.4421V15.1794H56.4098V7.66598H62.3025V9.30821H58.5136V13.5372ZM67.3674 15.3297C66.7735 15.3297 66.2225 15.2367 65.7145 15.0506C65.2136 14.8574 64.7771 14.5855 64.405 14.2349C64.04 13.8843 63.7538 13.4728 63.5463 13.0005C63.3388 12.5211 63.235 11.9952 63.235 11.4227C63.235 10.8503 63.3388 10.3279 63.5463 9.85562C63.7538 9.37618 64.04 8.96116 64.405 8.61053C64.7771 8.2599 65.2136 7.99156 65.7145 7.80551C66.2225 7.61231 66.7735 7.51571 67.3674 7.51571C68.0615 7.51571 68.6805 7.63735 69.2243 7.88065C69.7753 8.12394 70.2333 8.47457 70.5982 8.93253L69.2458 10.1562C69.0025 9.86993 68.7342 9.65168 68.4408 9.50141C68.1545 9.35114 67.8325 9.27601 67.4748 9.27601C67.1671 9.27601 66.8844 9.3261 66.6268 9.42627C66.3692 9.52645 66.1474 9.67315 65.9613 9.86635C65.7824 10.0524 65.6393 10.2778 65.532 10.5426C65.4318 10.8073 65.3817 11.1007 65.3817 11.4227C65.3817 11.7447 65.4318 12.0381 65.532 12.3029C65.6393 12.5676 65.7824 12.7966 65.9613 12.9898C66.1474 13.1759 66.3692 13.319 66.6268 13.4191C66.8844 13.5193 67.1671 13.5694 67.4748 13.5694C67.8325 13.5694 68.1545 13.4943 68.4408 13.344C68.7342 13.1937 69.0025 12.9755 69.2458 12.6893L70.5982 13.9129C70.2333 14.3637 69.7753 14.7143 69.2243 14.9648C68.6805 15.2081 68.0615 15.3297 67.3674 15.3297ZM76.5691 7.66598H78.6943V15.1794H76.5691V7.66598ZM73.671 15.1794H71.5458V7.66598H73.671V15.1794ZM76.7193 12.2492H73.5207V10.4889H76.7193V12.2492ZM87.106 15.3297C86.5049 15.3297 85.9503 15.2331 85.4423 15.0399C84.9342 14.8467 84.4905 14.5748 84.1113 14.2242C83.7392 13.8664 83.4494 13.4513 83.2419 12.9791C83.0344 12.5068 82.9306 11.988 82.9306 11.4227C82.9306 10.8574 83.0344 10.3386 83.2419 9.86635C83.4494 9.39407 83.7392 8.98262 84.1113 8.63199C84.4905 8.27421 84.9342 7.99872 85.4423 7.80551C85.9503 7.61231 86.5049 7.51571 87.106 7.51571C87.7142 7.51571 88.2687 7.61231 88.7696 7.80551C89.2777 7.99872 89.7178 8.27421 90.0899 8.63199C90.462 8.98262 90.7518 9.39407 90.9593 9.86635C91.174 10.3386 91.2813 10.8574 91.2813 11.4227C91.2813 11.988 91.174 12.5104 90.9593 12.9898C90.7518 13.4621 90.462 13.8735 90.0899 14.2242C89.7178 14.5748 89.2777 14.8467 88.7696 15.0399C88.2687 15.2331 87.7142 15.3297 87.106 15.3297ZM87.106 13.5694C87.3922 13.5694 87.6569 13.5193 87.9002 13.4191C88.1507 13.319 88.3654 13.1759 88.5442 12.9898C88.7303 12.7966 88.8734 12.5676 88.9736 12.3029C89.0809 12.0381 89.1346 11.7447 89.1346 11.4227C89.1346 11.0935 89.0809 10.8002 88.9736 10.5426C88.8734 10.2778 88.7303 10.0524 88.5442 9.86635C88.3654 9.67315 88.1507 9.52645 87.9002 9.42627C87.6569 9.3261 87.3922 9.27601 87.106 9.27601C86.8197 9.27601 86.5514 9.3261 86.3009 9.42627C86.0576 9.52645 85.843 9.67315 85.6569 9.86635C85.478 10.0524 85.3349 10.2778 85.2276 10.5426C85.1274 10.8002 85.0773 11.0935 85.0773 11.4227C85.0773 11.7447 85.1274 12.0381 85.2276 12.3029C85.3349 12.5676 85.478 12.7966 85.6569 12.9898C85.843 13.1759 86.0576 13.319 86.3009 13.4191C86.5514 13.5193 86.8197 13.5694 87.106 13.5694ZM96.1404 15.3297C95.5465 15.3297 94.9955 15.2367 94.4874 15.0506C93.9865 14.8574 93.55 14.5855 93.1779 14.2349C92.813 13.8843 92.5268 13.4728 92.3193 13.0005C92.1117 12.5211 92.008 11.9952 92.008 11.4227C92.008 10.8503 92.1117 10.3279 92.3193 9.85562C92.5268 9.37618 92.813 8.96116 93.1779 8.61053C93.55 8.2599 93.9865 7.99156 94.4874 7.80551C94.9955 7.61231 95.5465 7.51571 96.1404 7.51571C96.8345 7.51571 97.4535 7.63735 97.9973 7.88065C98.5483 8.12394 99.0062 8.47457 99.3712 8.93253L98.0188 10.1562C97.7755 9.86993 97.5071 9.65168 97.2137 9.50141C96.9275 9.35114 96.6055 9.27601 96.2477 9.27601C95.94 9.27601 95.6574 9.3261 95.3998 9.42627C95.1422 9.52645 94.9203 9.67315 94.7343 9.86635C94.5554 10.0524 94.4123 10.2778 94.305 10.5426C94.2048 10.8073 94.1547 11.1007 94.1547 11.4227C94.1547 11.7447 94.2048 12.0381 94.305 12.3029C94.4123 12.5676 94.5554 12.7966 94.7343 12.9898C94.9203 13.1759 95.1422 13.319 95.3998 13.4191C95.6574 13.5193 95.94 13.5694 96.2477 13.5694C96.6055 13.5694 96.9275 13.4943 97.2137 13.344C97.5071 13.1937 97.7755 12.9755 98.0188 12.6893L99.3712 13.9129C99.0062 14.3637 98.5483 14.7143 97.9973 14.9648C97.4535 15.2081 96.8345 15.3297 96.1404 15.3297ZM102.272 10.5748H105.761V12.1633H102.272V10.5748ZM102.423 13.5372H106.351V15.1794H100.319V7.66598H106.211V9.30821H102.423V13.5372ZM106.629 15.1794L109.945 7.66598H112.038L115.366 15.1794H113.155L110.557 8.70713H111.394L108.797 15.1794H106.629ZM108.443 13.7197L108.99 12.1526H112.661L113.208 13.7197H108.443ZM115.968 15.1794V7.66598H117.718L121.861 12.6678H121.035V7.66598H123.117V15.1794H121.367L117.224 10.1776H118.051V15.1794H115.968ZM124.616 15.1794V7.66598H126.741V15.1794H124.616ZM131.999 15.3297C131.405 15.3297 130.854 15.2367 130.346 15.0506C129.845 14.8574 129.409 14.5855 129.037 14.2349C128.672 13.8843 128.386 13.4728 128.178 13.0005C127.971 12.5211 127.867 11.9952 127.867 11.4227C127.867 10.8503 127.971 10.3279 128.178 9.85562C128.386 9.37618 128.672 8.96116 129.037 8.61053C129.409 8.2599 129.845 7.99156 130.346 7.80551C130.854 7.61231 131.405 7.51571 131.999 7.51571C132.693 7.51571 133.312 7.63735 133.856 7.88065C134.407 8.12394 134.865 8.47457 135.23 8.93253L133.878 10.1562C133.634 9.86993 133.366 9.65168 133.073 9.50141C132.786 9.35114 132.464 9.27601 132.106 9.27601C131.799 9.27601 131.516 9.3261 131.259 9.42627C131.001 9.52645 130.779 9.67315 130.593 9.86635C130.414 10.0524 130.271 10.2778 130.164 10.5426C130.064 10.8073 130.013 11.1007 130.013 11.4227C130.013 11.7447 130.064 12.0381 130.164 12.3029C130.271 12.5676 130.414 12.7966 130.593 12.9898C130.779 13.1759 131.001 13.319 131.259 13.4191C131.516 13.5193 131.799 13.5694 132.106 13.5694C132.464 13.5694 132.786 13.4943 133.073 13.344C133.366 13.1937 133.634 12.9755 133.878 12.6893L135.23 13.9129C134.865 14.3637 134.407 14.7143 133.856 14.9648C133.312 15.2081 132.693 15.3297 131.999 15.3297Z" fill="#03488C"/>
<path d="M51.1093 26.5847V20.9711H48.8866V19.348H55.3686V20.9711H53.1562V26.5847H51.1093ZM58.0127 22.1496H61.3726V23.6797H58.0127V22.1496ZM58.1575 25.003H61.9412V26.5847H56.1312V19.348H61.8068V20.9297H58.1575V25.003ZM66.6852 26.7295C66.1131 26.7295 65.5824 26.6399 65.0931 26.4607C64.6106 26.2746 64.1902 26.0127 63.8318 25.675C63.4803 25.3372 63.2046 24.941 63.0048 24.4861C62.8049 24.0243 62.705 23.5177 62.705 22.9664C62.705 22.415 62.8049 21.9119 63.0048 21.457C63.2046 20.9952 63.4803 20.5955 63.8318 20.2578C64.1902 19.9201 64.6106 19.6616 65.0931 19.4824C65.5824 19.2963 66.1131 19.2033 66.6852 19.2033C67.3537 19.2033 67.9499 19.3204 68.4737 19.5548C69.0043 19.7891 69.4454 20.1268 69.7969 20.5679L68.4943 21.7465C68.26 21.4708 68.0015 21.2606 67.719 21.1158C67.4433 20.9711 67.1331 20.8987 66.7885 20.8987C66.4922 20.8987 66.2199 20.947 65.9718 21.0435C65.7237 21.14 65.5101 21.2812 65.3309 21.4673C65.1586 21.6465 65.0207 21.8636 64.9173 22.1186C64.8208 22.3736 64.7726 22.6562 64.7726 22.9664C64.7726 23.2765 64.8208 23.5591 64.9173 23.8141C65.0207 24.0691 65.1586 24.2896 65.3309 24.4757C65.5101 24.6549 65.7237 24.7928 65.9718 24.8893C66.2199 24.9857 66.4922 25.034 66.7885 25.034C67.1331 25.034 67.4433 24.9616 67.719 24.8169C68.0015 24.6722 68.26 24.4619 68.4943 24.1863L69.7969 25.3648C69.4454 25.799 69.0043 26.1367 68.4737 26.378C67.9499 26.6123 67.3537 26.7295 66.6852 26.7295ZM75.5479 19.348H77.5948V26.5847H75.5479V19.348ZM72.7566 26.5847H70.7096V19.348H72.7566V26.5847ZM75.6926 23.7624H72.6118V22.0669H75.6926V23.7624ZM79.0387 26.5847V19.348H80.7238L84.7143 24.1656H83.9183V19.348H85.9239V26.5847H84.2388L80.2482 21.7671H81.0443V26.5847H79.0387ZM91.0171 26.7295C90.4382 26.7295 89.9041 26.6364 89.4147 26.4503C88.9254 26.2642 88.4981 26.0023 88.1328 25.6646C87.7744 25.32 87.4953 24.9203 87.2954 24.4654C87.0955 24.0105 86.9956 23.5108 86.9956 22.9664C86.9956 22.4219 87.0955 21.9222 87.2954 21.4673C87.4953 21.0125 87.7744 20.6162 88.1328 20.2784C88.4981 19.9338 88.9254 19.6685 89.4147 19.4824C89.9041 19.2963 90.4382 19.2033 91.0171 19.2033C91.603 19.2033 92.1371 19.2963 92.6195 19.4824C93.1089 19.6685 93.5328 19.9338 93.8911 20.2784C94.2495 20.6162 94.5287 21.0125 94.7285 21.4673C94.9353 21.9222 95.0387 22.4219 95.0387 22.9664C95.0387 23.5108 94.9353 24.014 94.7285 24.4757C94.5287 24.9306 94.2495 25.3269 93.8911 25.6646C93.5328 26.0023 93.1089 26.2642 92.6195 26.4503C92.1371 26.6364 91.603 26.7295 91.0171 26.7295ZM91.0171 25.034C91.2928 25.034 91.5478 24.9857 91.7822 24.8893C92.0234 24.7928 92.2301 24.6549 92.4024 24.4757C92.5816 24.2896 92.7195 24.0691 92.816 23.8141C92.9194 23.5591 92.971 23.2765 92.971 22.9664C92.971 22.6493 92.9194 22.3667 92.816 22.1186C92.7195 21.8636 92.5816 21.6465 92.4024 21.4673C92.2301 21.2812 92.0234 21.14 91.7822 21.0435C91.5478 20.947 91.2928 20.8987 91.0171 20.8987C90.7414 20.8987 90.483 20.947 90.2418 21.0435C90.0074 21.14 89.8007 21.2812 89.6215 21.4673C89.4492 21.6465 89.3113 21.8636 89.208 22.1186C89.1115 22.3667 89.0632 22.6493 89.0632 22.9664C89.0632 23.2765 89.1115 23.5591 89.208 23.8141C89.3113 24.0691 89.4492 24.2896 89.6215 24.4757C89.8007 24.6549 90.0074 24.7928 90.2418 24.8893C90.483 24.9857 90.7414 25.034 91.0171 25.034ZM96.1108 26.5847V19.348H98.1577V24.9616H101.611V26.5847H96.1108ZM105.959 26.7295C105.38 26.7295 104.846 26.6364 104.357 26.4503C103.867 26.2642 103.44 26.0023 103.075 25.6646C102.716 25.32 102.437 24.9203 102.237 24.4654C102.037 24.0105 101.937 23.5108 101.937 22.9664C101.937 22.4219 102.037 21.9222 102.237 21.4673C102.437 21.0125 102.716 20.6162 103.075 20.2784C103.44 19.9338 103.867 19.6685 104.357 19.4824C104.846 19.2963 105.38 19.2033 105.959 19.2033C106.545 19.2033 107.079 19.2963 107.561 19.4824C108.051 19.6685 108.475 19.9338 108.833 20.2784C109.191 20.6162 109.471 21.0125 109.67 21.4673C109.877 21.9222 109.981 22.4219 109.981 22.9664C109.981 23.5108 109.877 24.014 109.67 24.4757C109.471 24.9306 109.191 25.3269 108.833 25.6646C108.475 26.0023 108.051 26.2642 107.561 26.4503C107.079 26.6364 106.545 26.7295 105.959 26.7295ZM105.959 25.034C106.235 25.034 106.49 24.9857 106.724 24.8893C106.965 24.7928 107.172 24.6549 107.344 24.4757C107.524 24.2896 107.661 24.0691 107.758 23.8141C107.861 23.5591 107.913 23.2765 107.913 22.9664C107.913 22.6493 107.861 22.3667 107.758 22.1186C107.661 21.8636 107.524 21.6465 107.344 21.4673C107.172 21.2812 106.965 21.14 106.724 21.0435C106.49 20.947 106.235 20.8987 105.959 20.8987C105.683 20.8987 105.425 20.947 105.184 21.0435C104.949 21.14 104.743 21.2812 104.563 21.4673C104.391 21.6465 104.253 21.8636 104.15 22.1186C104.053 22.3667 104.005 22.6493 104.005 22.9664C104.005 23.2765 104.053 23.5591 104.15 23.8141C104.253 24.0691 104.391 24.2896 104.563 24.4757C104.743 24.6549 104.949 24.7928 105.184 24.8893C105.425 24.9857 105.683 25.034 105.959 25.034ZM114.671 26.7295C114.099 26.7295 113.568 26.6399 113.079 26.4607C112.59 26.2746 112.166 26.0127 111.807 25.675C111.456 25.3372 111.18 24.941 110.98 24.4861C110.78 24.0243 110.68 23.5177 110.68 22.9664C110.68 22.415 110.78 21.9119 110.98 21.457C111.18 20.9952 111.459 20.5955 111.818 20.2578C112.176 19.9201 112.6 19.6616 113.089 19.4824C113.585 19.2963 114.127 19.2033 114.712 19.2033C115.395 19.2033 116.005 19.317 116.542 19.5444C117.08 19.7719 117.524 20.0992 117.876 20.5266L116.573 21.7051C116.325 21.4363 116.056 21.2364 115.767 21.1055C115.484 20.9677 115.167 20.8987 114.816 20.8987C114.506 20.8987 114.223 20.947 113.968 21.0435C113.713 21.14 113.496 21.2812 113.317 21.4673C113.138 21.6465 112.996 21.8636 112.893 22.1186C112.796 22.3667 112.748 22.6493 112.748 22.9664C112.748 23.2696 112.796 23.5487 112.893 23.8038C112.996 24.0588 113.138 24.2793 113.317 24.4654C113.496 24.6446 113.71 24.7859 113.958 24.8893C114.213 24.9857 114.492 25.034 114.795 25.034C115.098 25.034 115.395 24.9857 115.684 24.8893C115.974 24.7859 116.267 24.6136 116.563 24.3724L117.71 25.8094C117.297 26.1057 116.818 26.3332 116.273 26.4917C115.729 26.6502 115.195 26.7295 114.671 26.7295ZM115.901 25.5406V22.8113H117.71V25.8094L115.901 25.5406ZM119.008 26.5847V19.348H121.055V26.5847H119.008ZM124.393 22.1496H127.753V23.6797H124.393V22.1496ZM124.538 25.003H128.321V26.5847H122.511V19.348H128.187V20.9297H124.538V25.003ZM132.001 26.7295C131.408 26.7295 130.836 26.6571 130.284 26.5123C129.74 26.3607 129.295 26.1677 128.951 25.9334L129.623 24.424C129.947 24.6308 130.319 24.8031 130.739 24.941C131.167 25.0719 131.59 25.1374 132.011 25.1374C132.293 25.1374 132.521 25.1133 132.693 25.065C132.866 25.0099 132.99 24.941 133.065 24.8582C133.148 24.7686 133.189 24.6653 133.189 24.5481C133.189 24.3827 133.114 24.2517 132.962 24.1553C132.81 24.0588 132.614 23.9795 132.373 23.9175C132.132 23.8554 131.863 23.7934 131.566 23.7314C131.277 23.6694 130.984 23.5901 130.688 23.4936C130.398 23.3971 130.133 23.2731 129.892 23.1214C129.65 22.9629 129.454 22.7596 129.302 22.5115C129.151 22.2565 129.075 21.936 129.075 21.55C129.075 21.1158 129.192 20.723 129.426 20.3715C129.668 20.02 130.026 19.7374 130.502 19.5238C130.977 19.3101 131.57 19.2033 132.28 19.2033C132.755 19.2033 133.22 19.2584 133.675 19.3687C134.137 19.4721 134.547 19.6271 134.906 19.8339L134.275 21.3536C133.93 21.1675 133.589 21.0297 133.251 20.9401C132.914 20.8436 132.586 20.7954 132.269 20.7954C131.987 20.7954 131.759 20.8264 131.587 20.8884C131.415 20.9435 131.291 21.0193 131.215 21.1158C131.139 21.2123 131.101 21.3226 131.101 21.4467C131.101 21.6052 131.174 21.7327 131.318 21.8292C131.47 21.9188 131.666 21.9946 131.908 22.0566C132.156 22.1117 132.424 22.1703 132.714 22.2324C133.01 22.2944 133.303 22.3736 133.593 22.4701C133.889 22.5597 134.158 22.6838 134.399 22.8423C134.64 22.9939 134.833 23.1972 134.978 23.4523C135.13 23.7004 135.205 24.014 135.205 24.393C135.205 24.8134 135.085 25.2029 134.844 25.5612C134.609 25.9127 134.254 26.1953 133.779 26.409C133.31 26.6226 132.717 26.7295 132.001 26.7295Z" fill="#008FCD"/>
<path d="M53.2182 33.5847V31.4005H53.5912V33.5847H53.2182ZM55.4872 33.5847V31.4005H55.7949L57.1985 33.1233H57.0562V31.4005H57.4292V33.5847H57.1216L55.7141 31.8619H55.8603V33.5847H55.4872ZM59.3298 33.5847V31.4005H59.6374L61.041 33.1233H60.8987V31.4005H61.2718V33.5847H60.9641L59.5567 31.8619H59.7028V33.5847H59.3298ZM64.1567 33.6155C63.9311 33.6155 63.7286 33.5668 63.5492 33.4694C63.3697 33.3719 63.2274 33.2386 63.1223 33.0694C63.0198 32.8976 62.9685 32.7041 62.9685 32.4887C62.9685 32.276 63.0198 32.085 63.1223 31.9158C63.2274 31.7466 63.3697 31.6132 63.5492 31.5158C63.7286 31.4184 63.9311 31.3697 64.1567 31.3697C64.3849 31.3697 64.5874 31.4184 64.7643 31.5158C64.9438 31.6132 65.0848 31.7466 65.1873 31.9158C65.2925 32.085 65.345 32.276 65.345 32.4887C65.345 32.7041 65.2925 32.8976 65.1873 33.0694C65.0848 33.2386 64.9438 33.3719 64.7643 33.4694C64.5874 33.5668 64.3849 33.6155 64.1567 33.6155ZM64.1567 33.2925C64.3131 33.2925 64.4516 33.2578 64.5721 33.1886C64.6951 33.1194 64.7913 33.0246 64.8605 32.9041C64.9323 32.781 64.9682 32.6438 64.9682 32.4926C64.9682 32.3362 64.9323 32.199 64.8605 32.0811C64.7913 31.9606 64.6951 31.8658 64.5721 31.7965C64.4516 31.7273 64.3131 31.6927 64.1567 31.6927C64.0029 31.6927 63.8645 31.7273 63.7414 31.7965C63.6184 31.8632 63.521 31.9568 63.4492 32.0773C63.38 32.1978 63.3453 32.3362 63.3453 32.4926C63.3453 32.6438 63.38 32.781 63.4492 32.9041C63.521 33.0246 63.6184 33.1194 63.7414 33.1886C63.8645 33.2578 64.0029 33.2925 64.1567 33.2925ZM67.5853 33.5847L66.6162 31.4005H67.0162L67.8891 33.4001H67.6622L68.5505 31.4005H68.9274L67.9545 33.5847H67.5853ZM69.966 33.5847L70.9658 31.4005H71.335L72.3387 33.5847H71.9618L71.0889 31.5966H71.2158L70.3313 33.5847H69.966ZM70.4236 33.0656L70.5236 32.7695H71.7234L71.8234 33.0656H70.4236ZM74.1156 33.5847V31.7081H73.3696V31.4005H75.2347V31.7081H74.4886V33.5847H74.1156ZM76.7774 33.5847V31.4005H77.1504V33.5847H76.7774ZM80.0308 33.6155C79.8052 33.6155 79.6027 33.5668 79.4232 33.4694C79.2438 33.3719 79.1015 33.2386 78.9964 33.0694C78.8938 32.8976 78.8426 32.7041 78.8426 32.4887C78.8426 32.276 78.8938 32.085 78.9964 31.9158C79.1015 31.7466 79.2438 31.6132 79.4232 31.5158C79.6027 31.4184 79.8052 31.3697 80.0308 31.3697C80.259 31.3697 80.4615 31.4184 80.6384 31.5158C80.8179 31.6132 80.9589 31.7466 81.0614 31.9158C81.1665 32.085 81.2191 32.276 81.2191 32.4887C81.2191 32.7041 81.1665 32.8976 81.0614 33.0694C80.9589 33.2386 80.8179 33.3719 80.6384 33.4694C80.4615 33.5668 80.259 33.6155 80.0308 33.6155ZM80.0308 33.2925C80.1872 33.2925 80.3256 33.2578 80.4461 33.1886C80.5692 33.1194 80.6653 33.0246 80.7346 32.9041C80.8063 32.781 80.8422 32.6438 80.8422 32.4926C80.8422 32.3362 80.8063 32.199 80.7346 32.0811C80.6653 31.9606 80.5692 31.8658 80.4461 31.7965C80.3256 31.7273 80.1872 31.6927 80.0308 31.6927C79.877 31.6927 79.7386 31.7273 79.6155 31.7965C79.4924 31.8632 79.395 31.9568 79.3232 32.0773C79.254 32.1978 79.2194 32.3362 79.2194 32.4926C79.2194 32.6438 79.254 32.781 79.3232 32.9041C79.395 33.0246 79.4924 33.1194 79.6155 33.1886C79.7386 33.2578 79.877 33.2925 80.0308 33.2925ZM82.9152 33.5847V31.4005H83.2228L84.6264 33.1233H84.4842V31.4005H84.8572V33.5847H84.5495L83.1421 31.8619H83.2882V33.5847H82.9152ZM88.9441 33.5847V31.4005H89.3171V33.5847H88.9441ZM91.2131 33.5847V31.4005H91.5208L92.9244 33.1233H92.7821V31.4005H93.1551V33.5847H92.8475L91.44 31.8619H91.5861V33.5847H91.2131ZM97.5535 32.3234H98.7033V32.6272H97.5535V32.3234ZM97.615 33.2732H98.8802V33.5847H97.242V31.4005H98.8379V31.7081H97.615V33.2732ZM101.189 33.5847L100.22 31.4005H100.62L101.493 33.4001H101.266L102.155 31.4005H102.531L101.559 33.5847H101.189ZM104.401 32.3234H105.551V32.6272H104.401V32.3234ZM104.463 33.2732H105.728V33.5847H104.09V31.4005H105.686V31.7081H104.463V33.2732ZM107.436 33.5847V31.4005H108.329C108.521 31.4005 108.686 31.4312 108.825 31.4927C108.963 31.5517 109.071 31.6389 109.148 31.7542C109.225 31.867 109.263 32.0055 109.263 32.1696C109.263 32.3285 109.225 32.4657 109.148 32.581C109.071 32.6964 108.963 32.7848 108.825 32.8464C108.686 32.9053 108.521 32.9348 108.329 32.9348H107.644L107.809 32.7656V33.5847H107.436ZM108.898 33.5847L108.329 32.7925H108.732L109.302 33.5847H108.898ZM107.809 32.8079L107.667 32.631H108.306C108.495 32.631 108.639 32.5913 108.736 32.5118C108.836 32.4323 108.886 32.3183 108.886 32.1696C108.886 32.0209 108.836 31.9068 108.736 31.8273C108.639 31.7478 108.495 31.7081 108.306 31.7081H107.667L107.809 31.5312V32.8079ZM111.505 33.5847V32.7387L111.579 32.981L110.609 31.4005H111.006L111.805 32.6849H111.602L112.394 31.4005H112.778L111.813 32.981L111.878 32.7387V33.5847H111.505ZM118.031 32.9617C118.031 33.0951 117.995 33.2104 117.923 33.3078C117.854 33.4053 117.753 33.4809 117.619 33.5347C117.489 33.5886 117.33 33.6155 117.143 33.6155C116.973 33.6155 116.808 33.5924 116.647 33.5463C116.488 33.4976 116.363 33.4335 116.273 33.354L116.42 33.0617C116.507 33.1309 116.616 33.1886 116.746 33.2348C116.877 33.2784 117.014 33.3001 117.158 33.3001C117.343 33.3001 117.472 33.2707 117.546 33.2117C117.621 33.1502 117.658 33.0784 117.658 32.9964C117.658 32.9246 117.634 32.8682 117.585 32.8271C117.539 32.7836 117.476 32.7502 117.396 32.7272C117.317 32.7015 117.23 32.6785 117.135 32.6579C117.043 32.6374 116.949 32.6144 116.854 32.5887C116.762 32.5631 116.676 32.5285 116.597 32.4849C116.52 32.4413 116.457 32.3823 116.408 32.308C116.359 32.2311 116.335 32.135 116.335 32.0196C116.335 31.8888 116.371 31.7748 116.443 31.6773C116.514 31.5799 116.616 31.5043 116.746 31.4504C116.877 31.3966 117.034 31.3697 117.216 31.3697C117.349 31.3697 117.481 31.3851 117.612 31.4158C117.742 31.444 117.855 31.4915 117.95 31.5581L117.816 31.8581C117.723 31.794 117.623 31.7491 117.516 31.7235C117.41 31.6978 117.307 31.685 117.204 31.685C117.03 31.685 116.903 31.7158 116.823 31.7773C116.746 31.8363 116.708 31.9093 116.708 31.9965C116.708 32.0683 116.732 32.126 116.781 32.1696C116.83 32.2106 116.893 32.2439 116.97 32.2695C117.049 32.2926 117.136 32.3144 117.231 32.3349C117.326 32.3554 117.419 32.3785 117.512 32.4041C117.604 32.4298 117.69 32.4644 117.769 32.508C117.849 32.5516 117.912 32.6105 117.958 32.6849C118.007 32.7566 118.031 32.8489 118.031 32.9617ZM120.052 33.5847V31.7081H119.306V31.4005H121.171V31.7081H120.425V33.5847H120.052ZM123.025 32.3234H124.175V32.6272H123.025V32.3234ZM123.086 33.2732H124.352V33.5847H122.713V31.4005H124.309V31.7081H123.086V33.2732ZM126.06 33.5847V31.4005H126.952C127.145 31.4005 127.31 31.4312 127.448 31.4927C127.587 31.5517 127.695 31.6389 127.771 31.7542C127.848 31.867 127.887 32.0055 127.887 32.1696C127.887 32.3311 127.848 32.4695 127.771 32.5849C127.695 32.7002 127.587 32.7887 127.448 32.8502C127.31 32.9117 127.145 32.9425 126.952 32.9425H126.268L126.433 32.7656V33.5847H126.06ZM126.433 32.8079L126.291 32.631H126.929C127.119 32.631 127.263 32.5913 127.36 32.5118C127.46 32.4323 127.51 32.3183 127.51 32.1696C127.51 32.0209 127.46 31.9068 127.36 31.8273C127.263 31.7478 127.119 31.7081 126.929 31.7081H126.291L126.433 31.5312V32.8079ZM131.136 32.9617C131.136 33.0951 131.101 33.2104 131.029 33.3078C130.96 33.4053 130.858 33.4809 130.725 33.5347C130.594 33.5886 130.435 33.6155 130.248 33.6155C130.079 33.6155 129.914 33.5924 129.752 33.5463C129.593 33.4976 129.469 33.4335 129.379 33.354L129.525 33.0617C129.612 33.1309 129.721 33.1886 129.852 33.2348C129.983 33.2784 130.12 33.3001 130.264 33.3001C130.448 33.3001 130.578 33.2707 130.652 33.2117C130.726 33.1502 130.763 33.0784 130.763 32.9964C130.763 32.9246 130.739 32.8682 130.69 32.8271C130.644 32.7836 130.581 32.7502 130.502 32.7272C130.422 32.7015 130.335 32.6785 130.24 32.6579C130.148 32.6374 130.055 32.6144 129.96 32.5887C129.867 32.5631 129.782 32.5285 129.702 32.4849C129.625 32.4413 129.562 32.3823 129.514 32.308C129.465 32.2311 129.441 32.135 129.441 32.0196C129.441 31.8888 129.476 31.7748 129.548 31.6773C129.62 31.5799 129.721 31.5043 129.852 31.4504C129.983 31.3966 130.139 31.3697 130.321 31.3697C130.455 31.3697 130.587 31.3851 130.717 31.4158C130.848 31.444 130.961 31.4915 131.056 31.5581L130.921 31.8581C130.829 31.794 130.729 31.7491 130.621 31.7235C130.516 31.6978 130.412 31.685 130.31 31.685C130.135 31.685 130.008 31.7158 129.929 31.7773C129.852 31.8363 129.814 31.9093 129.814 31.9965C129.814 32.0683 129.838 32.126 129.887 32.1696C129.935 32.2106 129.998 32.2439 130.075 32.2695C130.155 32.2926 130.242 32.3144 130.337 32.3349C130.431 32.3554 130.525 32.3785 130.617 32.4041C130.71 32.4298 130.796 32.4644 130.875 32.508C130.954 32.5516 131.017 32.6105 131.063 32.6849C131.112 32.7566 131.136 32.8489 131.136 32.9617Z" fill="white"/>
<defs>
<linearGradient id="paint0_linear_2_1207" x1="20.2027" y1="22.1489" x2="20.2027" y2="39.733" gradientUnits="userSpaceOnUse">
<stop stop-color="#00ACEA"/>
<stop offset="1" stop-color="#03488C"/>
</linearGradient>
<linearGradient id="paint1_linear_2_1207" x1="18.2989" y1="16.0152" x2="-3.42863" y2="-14.307" gradientUnits="userSpaceOnUse">
<stop stop-color="#03488C"/>
<stop offset="1" stop-color="#0CEEFF"/>
</linearGradient>
</defs>
</svg>
