<svg width="41" height="40" viewBox="0 0 41 40" fill="none" xmlns="http://www.w3.org/2000/svg">
<rect x="0.721436" y="0.5" width="39" height="39" rx="19.5" stroke="#0D6EFD"/>
<path d="M30.3715 23.38C29.1415 23.38 27.9514 23.18 26.8414 22.82C26.4914 22.7 26.1015 22.79 25.8315 23.06L24.2614 25.03C21.4314 23.68 18.7815 21.13 17.3715 18.2L19.3215 16.54C19.5915 16.26 19.6715 15.87 19.5615 15.52C19.1915 14.41 19.0015 13.22 19.0015 11.99C19.0015 11.45 18.5515 11 18.0115 11H14.5515C14.0115 11 13.3615 11.24 13.3615 11.99C13.3615 21.28 21.0915 29 30.3715 29C31.0814 29 31.3615 28.37 31.3615 27.82V24.37C31.3615 23.83 30.9115 23.38 30.3715 23.38Z" fill="#ADADAD"/>
</svg>
